<svg width="1920" height="1080" viewBox="0 0 1920 1080" fill="none" xmlns="http://www.w3.org/2000/svg">
<mask id="mask0_5_206" style="mask-type:alpha" maskUnits="userSpaceOnUse" x="0" y="0" width="1920" height="1080">
<rect width="1920" height="1080" fill="white"/>
</mask>
<g mask="url(#mask0_5_206)">
<path d="M1188.51 1234.81L1265.33 1310.45L1244.67 1330.8L1167.88 1255.15L1188.51 1234.81ZM1276.01 1028.54L1352.8 1104.18L1332.14 1124.52L1255.35 1048.88L1276.01 1028.54Z" fill="#EA596E"/>
<path d="M1322.18 957.435L1399 1033.08L1378.36 1053.42L1301.55 977.778L1322.18 957.435Z" fill="#77B255"/>
<path d="M1396.2 1030.3L1473.02 1105.94L1452.36 1126.29L1375.54 1050.64L1396.2 1030.3Z" fill="#FFD983"/>
<path d="M1381.41 899.116L1458.22 974.758L1437.56 995.08L1360.75 919.459L1381.41 899.116Z" fill="#EABC54"/>
<path d="M1455.43 972.004L1532.24 1047.62L1511.58 1067.97L1434.79 992.325L1455.43 972.004ZM1532.96 749.882L1609.78 825.524L1589.12 845.845L1512.3 770.225L1532.96 749.882Z" fill="#EA596E"/>
<path d="M1606.98 822.769L1683.79 898.389L1663.14 918.732L1586.32 843.09L1606.98 822.769Z" fill="#EABC54"/>
<path d="M1591.74 690.197L1668.55 765.839L1647.89 786.182L1571.08 710.54L1591.74 690.197Z" fill="#77B255"/>
<path d="M1666.65 763.987L1743.47 839.608L1722.81 859.951L1645.99 784.33L1666.65 763.987Z" fill="#FFD983"/>
<path d="M1544.93 658.458C1488.53 714 1486.72 793.896 1491.31 874.585C1502.52 875.203 1513.73 875.93 1524.92 876.657C1533.65 877.23 1542.27 877.781 1550.87 878.288C1546.43 805.864 1546.41 739.456 1586.81 699.674C1603.08 684.179 1608.19 663.241 1596.82 651.935C1584.84 640.033 1562.3 640.981 1544.93 658.458Z" fill="#76A491"/>
<path d="M1554.6 936.938C1543.39 936.32 1532.15 935.593 1520.96 934.866C1512.25 934.293 1503.62 933.742 1495.04 933.235C1499.47 1005.64 1499.5 1072.07 1459.07 1111.85C1418.7 1151.61 1351.35 1151.63 1277.91 1147.27C1269.27 1146.76 1229.59 1144.18 1218.46 1143.57C1136.39 1139.02 1055.14 1140.79 998.665 1196.4C993.115 1201.86 989.998 1209.28 990 1217.01C990.002 1224.74 993.123 1232.16 998.676 1237.62C1004.23 1243.09 1011.76 1246.16 1019.61 1246.15C1027.46 1246.15 1034.99 1243.08 1040.54 1237.61C1080.94 1197.85 1148.31 1197.81 1221.8 1202.17C1230.41 1202.68 1270.17 1205.26 1281.33 1205.87C1363.3 1210.39 1444.48 1208.63 1500.93 1153.06C1557.36 1097.52 1559.19 1017.63 1554.6 936.938Z" fill="#76A491"/>
<path d="M1554.6 936.937C1553.98 925.895 1551.36 886.752 1550.84 878.31C1550.24 868.531 1549.76 858.744 1549.41 848.953C1541.89 848.49 1502.41 846.021 1490.03 845.36C1490.32 855.058 1490.75 864.822 1491.28 874.586C1491.91 885.628 1494.53 924.771 1495.04 933.235C1496.27 953.38 1497.08 972.995 1496.86 991.774C1504.31 992.237 1543.72 994.683 1556.06 995.344C1556.29 975.864 1555.81 956.382 1554.6 936.937Z" fill="#3C7D62"/>
<path d="M1783.51 835.111C1774.11 825.502 1752.51 821.865 1732.23 842.892C1691.83 882.674 1624.41 882.696 1550.84 878.31C1542.25 877.803 1502.5 875.203 1491.28 874.586C1409.36 870.067 1328.2 871.875 1271.8 927.416C1222.22 976.235 1214.84 1043.88 1216.9 1114.32C1229.27 1114.98 1268.8 1117.45 1276.28 1117.89C1274.08 1057.17 1278.81 1002.97 1313.68 968.631C1354.08 928.849 1421.52 928.849 1495.07 933.213C1503.64 933.72 1543.41 936.298 1554.63 936.915C1636.57 941.434 1717.7 939.648 1774.11 884.107C1793.94 864.954 1792.91 844.721 1783.51 835.111Z" fill="#3C7D62"/>
<path d="M1591.69 690.031L1668.51 765.673L1647.85 785.994L1571.03 710.374L1591.69 690.031Z" fill="#77B255"/>
<path d="M1666.51 763.667L1743.31 839.31L1722.65 859.653L1645.88 784.011L1666.51 763.667Z" fill="#FFD983"/>
<path d="M1664.52 645.752L1741.34 721.394L1720.68 741.737L1643.86 666.095L1664.52 645.752Z" fill="#EABC54"/>
<path d="M1725.51 705.812L1802.33 781.454L1781.67 801.797L1704.88 726.155L1725.51 705.812ZM1813.01 499.537L1889.8 575.179L1869.14 595.522L1792.35 519.88L1813.01 499.537Z" fill="#EA596E"/>
<path d="M1873.98 559.618L1950.79 635.239L1930.13 655.582L1853.32 579.962L1873.98 559.618Z" fill="#EABC54"/>
<path d="M1859.18 428.435L1936 504.077L1915.36 524.42L1838.55 448.778L1859.18 428.435Z" fill="#77B255"/>
<path d="M1933.2 501.3L2010.02 576.942L1989.36 597.285L1912.54 521.643L1933.2 501.3Z" fill="#FFD983"/>
<path d="M1918.41 370.116L1995.22 445.758L1974.56 466.08L1897.75 390.459L1918.41 370.116Z" fill="#EABC54"/>
<path d="M1818.36 676.895L1814.93 618.268C1814.35 608.46 1813.63 598.453 1813.28 588.91C1806.65 582.386 1758.08 581.218 1753.89 585.339C1754.19 595.037 1754.95 604.823 1755.48 614.587C1756.11 625.651 1758.3 664.729 1758.82 673.214C1760.03 693.271 1760.97 713.019 1760.74 731.753C1766.54 737.461 1813.81 741.385 1819.95 735.324C1820.13 715.835 1819.6 696.346 1818.36 676.895Z" fill="#76A491"/>
<path d="M1820.01 735.301L1760.72 731.731C1760.14 780.418 1752.13 823.088 1722.96 851.806C1717.41 857.272 1714.29 864.686 1714.29 872.417C1714.28 880.149 1717.4 887.564 1722.95 893.033C1728.5 898.501 1736.03 901.574 1743.88 901.576C1751.73 901.579 1759.26 898.509 1764.82 893.044C1819.05 839.662 1820.04 734.927 1820.01 735.301Z" fill="#3C7D62"/>
<path d="M2091.6 407.938C2080.39 407.32 2069.15 406.593 2057.96 405.866C2049.25 405.293 2040.62 404.742 2032.04 404.235C2036.47 476.637 2036.5 543.067 1996.07 582.849C1955.7 622.61 1888.35 622.632 1814.91 618.268C1806.27 617.761 1766.59 615.182 1755.46 614.565C1673.39 610.025 1592.14 611.788 1535.67 667.396C1530.11 672.864 1527 680.28 1527 688.011C1527 695.743 1530.12 703.157 1535.68 708.622C1541.23 714.088 1548.76 717.157 1556.61 717.155C1564.46 717.153 1571.99 714.08 1577.54 708.611C1617.94 668.85 1685.31 668.806 1758.8 673.17C1767.41 673.677 1807.17 676.256 1818.33 676.873C1900.3 681.391 1981.48 679.628 2037.93 624.065C2094.36 568.523 2096.19 488.627 2091.6 407.938Z" fill="#76A491"/>
<path d="M2320.51 306.111C2311.11 296.502 2289.51 292.865 2269.23 313.892C2228.83 353.674 2161.41 353.696 2087.84 349.31C2079.25 348.803 2039.5 346.203 2028.28 345.586C1946.36 341.067 1865.2 342.875 1808.8 398.416C1759.22 447.235 1751.84 514.877 1753.9 585.318C1766.27 585.979 1805.8 588.447 1813.28 588.888C1811.08 528.167 1815.81 473.97 1850.68 439.631C1891.08 399.849 1958.52 399.849 2032.07 404.213C2040.64 404.72 2080.41 407.298 2091.63 407.915C2173.57 412.434 2254.7 410.648 2311.11 355.107C2330.94 335.954 2329.91 315.721 2320.51 306.111Z" fill="#3C7D62"/>
</g>
</svg>
